#!OML:ASF F:\VICON\USERDATA\Patient Classification 1\PLAYGROUND\JustinFriday\JustinFriday.ASF
:FULLY-SPECIFIED
:DEGREES
1765
root 26.1252 18.122 42.0375 356.469 -31.9975 4.82414
lowerback 11.2165 -1.22965 -6.75612
upperback 4.86939 -2.37277 0.323243
thorax -0.888008 -1.30877 4.41347
lowerneck -0.994633 -13.0967 -13.717
upperneck 19.9342 -19.2882 10.2087
head 8.71795 -9.52157 3.7565
rclavicle 4.57205e-015 -1.49089e-014
rhumerus -39.8437 2.44956 -87.242
rradius 36.8831
rwrist -12.8365
rhand -16.0435 -31.4443
rfingers 7.12502
rthumb 10.1582 -61.1791
lclavicle 4.57205e-015 -1.49089e-014
lhumerus -32.4402 19.23 71.7333
lradius 28.0749
lwrist -0.00455009
lhand -15.6295 -0.273002
lfingers 7.12502
lthumb 10.5575 29.4418
rfemur -14.6962 14.0855 21.6251
rtibia 76.3285
rfoot 2.5067 -20.5885
rtoes -30.7374
lfemur -10.4426 10.0541 -17.754
ltibia 13.9214
lfoot 3.0853 4.93735
ltoes 60.4016
1766
root 26.0811 18.2009 42.1718 357.399 -32.3712 3.01857
lowerback 11.0941 -1.29797 -4.73979
upperback 4.89017 -2.24611 0.54328
thorax -0.900257 -1.22017 3.48945
lowerneck -0.675553 -13.2992 -13.948
upperneck 19.8624 -19.7039 10.7022
head 8.77055 -9.71289 3.9126
rclavicle -1.45858e-013 2.127e-014
rhumerus -40.1521 1.82374 -87.2641
rradius 37.3184
rwrist -13.11
rhand -15.6419 -28.0061
rfingers 7.12502
rthumb 10.5456 -57.7216
lclavicle -1.45858e-013 2.127e-014
lhumerus -31.4682 18.3016 71.9354
lradius 27.2957
lwrist -1.14433
lhand -15.5989 -0.499275
lfingers 7.12502
lthumb 10.5871 29.2141
rfemur -15.6196 14.6315 23.7627
rtibia 77.1679
rfoot 0.39542 -21.4592
rtoes -30.2963
lfemur -4.79474 10.0846 -16.0462
ltibia 4.04918
lfoot 1.50208 9.07334
ltoes 60.3556
1767
root 26.0535 18.2723 42.3096 357.473 -32.6667 3.04382
lowerback 10.856 -1.54674 -4.56289
upperback 4.91427 -2.54928 0.360949
thorax -0.734704 -1.37181 3.22263
lowerneck -0.642633 -13.2359 -13.697
upperneck 19.8912 -19.6996 10.9163
head 8.76879 -9.68471 3.95209
rclavicle -6.40832e-014 1.13307e-014
rhumerus -40.2339 2.11717 -87.7573
rradius 37.8407
rwrist -13.3913
rhand -15.3569 -26.5053
rfingers 7.12502
rthumb 10.8206 -56.2066
lclavicle -6.40832e-014 1.13307e-014
lhumerus -30.7665 17.9417 71.7658
lradius 26.9591
lwrist -1.50979
lhand -15.2232 0.247091
lfingers 7.12502
lthumb 10.9495 29.9416
rfemur -16.7699 14.8811 23.8926
rtibia 77.8359
rfoot -1.03615 -21.4964
rtoes -29.1771
lfemur -2.2329 10.0951 -16.1645
ltibia -1.82882e-014
lfoot 1.02221 10.534
ltoes 60.2369
1768
root 26.0239 18.3275 42.4196 355.588 -32.3897 5.98051
lowerback 11.2519 -1.58229 -7.14402
upperback 4.98002 -2.89419 -0.295085
thorax -0.737755 -1.57742 4.03707
lowerneck -0.561747 -13.2513 -13.8402
upperneck 19.8357 -19.8144 11.3247
head 8.81082 -9.72584 4.0952
rclavicle 5.59579e-014 -1.85864e-014
rhumerus -40.2873 2.20512 -87.8774
rradius 38.4939
rwrist -13.8301
rhand -14.5602 -27.4175
rfingers 7.12502
rthumb 11.5889 -57.0771
lclavicle 5.59579e-014 -1.85864e-014
lhumerus -29.8694 17.7061 71.8801
lradius 26.6386
lwrist -1.94004
lhand -14.2569 0.808388
lfingers 7.12502
lthumb 11.8814 30.4513
rfemur -17.9466 14.241 21.2497
rtibia 78.7626
rfoot -1.39857 -20.9896
rtoes -27.995
lfemur -1.51792 9.63855 -18.9844
ltibia 1.82882e-014
lfoot 1.06636 10.0938
ltoes 59.9606
1769
root 25.9814 18.3694 42.5459 356.841 -32.9131 3.82426
lowerback 10.8934 -1.589 -4.8298
upperback 5.04025 -2.6389 0.0462842
thorax -0.617751 -1.42358 3.05287
lowerneck -0.360142 -13.4844 -14.2372
upperneck 19.7707 -20.2944 12.0027
head 8.9415 -9.94097 4.31504
rclavicle -8.05326e-014 1.87852e-014
rhumerus -40.5177 1.49612 -87.7625
rradius 39.2325
rwrist -14.2522
rhand -14.4999 -28.4816
rfingers 7.12502
rthumb 11.647 -58.1379
lclavicle -8.05326e-014 1.87852e-014
lhumerus -28.7062 16.94 72.2195
lradius 26.1253
lwrist -2.57532
lhand -13.3334 0.779392
lfingers 7.12502
lthumb 12.7718 30.3687
rfemur -19.3407 14.1938 23.6854
rtibia 79.251
rfoot 1.22554 -20.8063
rtoes -25.7689
lfemur -1.0359 9.78565 -16.9764
ltibia 4.25399e-014
lfoot 1.17914 9.5952
ltoes 59.7301
1770
root 25.9498 18.3927 42.6666 356.797 -33.1597 3.9499
lowerback 10.7593 -1.69979 -4.82074
upperback 5.0911 -2.7794 -0.0836385
thorax -0.486832 -1.4968 2.92016
lowerneck -0.327436 -13.5387 -14.0749
upperneck 19.6422 -20.4319 12.2534
head 8.92148 -9.98336 4.35848
rclavicle -2.56805e-014 1.1778e-014
rhumerus -40.6135 1.58148 -88.0842
rradius 40.0386
rwrist -14.9936
rhand -15.5192 -28.4875
rfingers 7.12502
rthumb 10.664 -58.1969
lclavicle -2.56805e-014 1.1778e-014
lhumerus -27.8161 16.4744 72.2859
lradius 25.8075
lwrist -2.9846
lhand -13.5568 0.454583
lfingers 7.12502
lthumb 12.5565 30.0573
rfemur -20.7776 13.5028 23.7249
rtibia 79.8157
rfoot 3.47732 -19.7631
rtoes -21.8537
lfemur -0.573201 9.75605 -17.1441
ltibia 6.52014e-014
lfoot 1.29095 9.23253
ltoes 59.5281
1771
root 25.9242 18.3843 42.7688 355.644 -33.1625 5.87361
lowerback 10.9629 -2.01388 -6.81368
upperback 5.02572 -3.41417 -0.579186
thorax -0.510595 -1.83843 3.59263
lowerneck -0.0252676 -13.2269 -13.5522
upperneck 19.337 -20.0217 12.234
head 8.64053 -9.78489 4.37046
rclavicle -1.24784e-014 1.08415e-014
rhumerus -40.8013 2.58419 -88.9083
rradius 40.931
rwrist -15.7987
rhand -14.6407 -26.9269
rfingers 7.12502
rthumb 11.5113 -56.5908
lclavicle -1.24784e-014 1.08415e-014
lhumerus -27.6039 16.618 71.7272
lradius 25.9022
lwrist -3.39995
lhand -14.4569 0.0455357
lfingers 7.12502
lthumb 11.6885 29.6995
rfemur -22.0276 12.8987 21.7489
rtibia 80.5971
rfoot 2.14297 -19.1757
rtoes -19.8101
lfemur -0.0958329 9.56368 -18.9853
ltibia 1.23246e-014
lfoot 1.29755 8.99551
ltoes 59.2722
1772
root 25.8961 18.3714 42.8811 356.693 -33.804 4.62982
lowerback 10.5059 -2.27394 -5.76594
upperback 4.8798 -3.62111 -0.28437
thorax -0.445122 -1.92576 3.31539
lowerneck 0.28569 -13.0535 -13.7962
upperneck 19.1413 -19.8413 12.5077
head 8.54785 -9.71975 4.54609
rclavicle -6.66954e-014 2.00648e-015
rhumerus -41.1261 3.37953 -89.332
rradius 41.8885
rwrist -16.7412
rhand -14.8812 -27.5486
rfingers 7.12502
rthumb 11.2793 -57.2253
lclavicle -6.66954e-014 2.00648e-015
lhumerus -27.3223 16.5448 71.6284
lradius 26.0997
lwrist -3.78887
lhand -14.5899 0.165996
lfingers 7.12502
lthumb 11.5603 29.8272
rfemur -23.9774 12.5764 22.7622
rtibia 81.4303
rfoot 0.270042 -18.5709
rtoes -18.5972
lfemur -0.000516138 9.87745 -17.8847
ltibia 4.09496e-014
lfoot 1.38262 8.70288
ltoes 59.0161
1773
root 25.8652 18.3408 42.9992 357.316 -34.4363 3.66795
lowerback 10.2725 -2.3393 -4.79013
upperback 4.85209 -3.60122 -0.12411
thorax -0.405167 -1.90256 2.92397
lowerneck 0.391221 -13.0908 -13.8721
upperneck 19.0562 -19.936 12.6831
head 8.54156 -9.76609 4.60889
rclavicle 3.44457e-015 -6.4605e-015
rhumerus -41.7944 3.05376 -89.2804
rradius 43.4697
rwrist -16.9266
rhand -14.472 -27.6826
rfingers 7.12502
rthumb 11.674 -57.3374
lclavicle 3.44457e-015 -6.4605e-015
lhumerus -26.7801 15.8481 71.8042
lradius 26.2637
lwrist -3.93847
lhand -14.5008 0.412272
lfingers 7.12502
lthumb 11.6462 30.0686
rfemur -25.7414 11.8073 23.492
rtibia 82.3401
rfoot -2.25035 -17.5619
rtoes -17.6133
lfemur 0.430547 10.2046 -16.9767
ltibia 1.31198e-014
lfoot 1.5617 8.36809
ltoes 58.6965
1774
root 25.8296 18.2508 43.0923 355.652 -34.2325 5.85021
lowerback 10.8047 -2.3319 -6.75591
upperback 4.89729 -3.82328 -0.645953
thorax -0.522734 -2.03709 3.52597
lowerneck 0.424418 -13.1715 -13.6786
upperneck 18.9659 -20.0745 12.7626
head 8.51319 -9.81888 4.59119
rclavicle -3.59303e-014 1.50579e-014
rhumerus -42.0805 3.01285 -89.4058
rradius 44.4733
rwrist -17.159
rhand -13.2762 -26.6884
rfingers 7.12502
rthumb 12.8269 -56.2743
lclavicle -3.59303e-014 1.50579e-014
lhumerus -26.2572 14.7679 71.9569
lradius 26.57
lwrist -3.5966
lhand -14.6462 0.270245
lfingers 7.12502
lthumb 11.506 29.9345
rfemur -27.3532 9.81749 21.2469
rtibia 83.627
rfoot -5.36145 -15.9205
rtoes -17.0001
lfemur -2.07918 9.77934 -18.9038
ltibia 6.43704
lfoot 2.0084 4.99935
ltoes 58.3722
1775
root 25.7751 18.2643 43.1844 354.097 -33.77 7.95568
lowerback 11.2699 -2.36385 -8.59077
upperback 4.93945 -4.10496 -1.22116
thorax -0.598432 -2.19856 3.99686
lowerneck 0.566039 -13.2678 -13.4524
upperneck 18.7697 -20.248 12.9161
head 8.43945 -9.88931 4.59747
rclavicle 6.26172e-015 1.63997e-014
rhumerus -42.364 2.73972 -89.7249
rradius 45.5877
rwrist -17.3567
rhand -12.6329 -26.5378
rfingers 7.12502
rthumb 13.4471 -56.0838
lclavicle 6.26172e-015 1.63997e-014
lhumerus -25.7246 13.5091 72.0229
lradius 26.9879
lwrist -2.81591
lhand -14.816 0.00117243
lfingers 7.12502
lthumb 11.3422 29.6745
rfemur -28.138 8.99952 19.3375
rtibia 84.132
rfoot -7.70232 -14.8674
rtoes -16.2042
lfemur -2.95203 9.1675 -20.7769
ltibia 9.68201
lfoot 2.0836 3.1054
ltoes 58.1058
1776
root 25.7669 18.2104 43.2897 356.682 -35.1855 4.64722
lowerback 10.5365 -2.40182 -5.51099
upperback 4.79414 -3.77747 -0.542103
thorax -0.57287 -1.99179 2.92588
lowerneck 0.613436 -13.3658 -13.3007
upperneck 18.5185 -20.3696 12.9473
head 8.35101 -9.94238 4.57476
rclavicle -1.41634e-014 -1.14301e-014
rhumerus -42.4704 2.91512 -89.9517
rradius 46.6651
rwrist -17.993
rhand -12.3011 -26.9661
rfingers 7.12502
rthumb 13.7668 -56.4906
lclavicle -1.41634e-014 -1.14301e-014
lhumerus -25.0926 13.4655 71.9847
lradius 27.4108
lwrist -3.73147
lhand -14.2377 0.169704
lfingers 7.12502
lthumb 11.8999 29.8115
rfemur -30.065 10.031 22.4263
rtibia 84.3578
rfoot -9.39078 -13.7883
rtoes -14.5906
lfemur -3.88612 10.1135 -17.8312
ltibia 10.9616
lfoot 2.08701 2.22302
ltoes 57.8056
